<svg width="960" height="420" viewBox="0 0 960 420" xmlns="http://www.w3.org/2000/svg">
  <defs>
    <linearGradient id="wgv2" x1="0" y1="0" x2="1" y2="1">
      <stop offset="0%" stop-color="#6366f1"/>
      <stop offset="100%" stop-color="#a855f7"/>
    </linearGradient>
  </defs>
  <rect width="960" height="420" fill="#ffffff"/>

  <!-- Row 1 : crane mark -->
  <rect x="50" y="40" width="60" height="60" rx="14" fill="url(#wgv2)"/>
  <rect x="76" y="58" width="6" height="34" rx="3" fill="#fff"/>
  <path d="M62 64 H100" stroke="#fff" stroke-width="5" stroke-linecap="round"/>
  <path d="M70 86 L80 94 L96 76" stroke="#fff" stroke-width="5" fill="none" stroke-linecap="round" stroke-linejoin="round"/>
  <text x="124" y="82" font-family="Inter, Arial, sans-serif" font-weight="700" font-size="32" fill="#1e1b3a">BuildFlow</text>

  <!-- Row 2 : skyline mark -->
  <rect x="50" y="130" width="60" height="60" rx="14" fill="url(#wgv2)"/>
  <rect x="62" y="160" width="9" height="22" rx="2" fill="#fff" opacity="0.85"/>
  <rect x="76" y="148" width="9" height="34" rx="2" fill="#fff"/>
  <rect x="90" y="138" width="9" height="44" rx="2" fill="#fff" opacity="0.85"/>
  <text x="124" y="172" font-family="Inter, Arial, sans-serif" font-weight="700" font-size="32" fill="#1e1b3a">Build<tspan fill="url(#wgv2)">Flow</tspan></text>

  <!-- Row 3 : blueprint B mark -->
  <rect x="50" y="220" width="60" height="60" rx="14" fill="#ffffff" stroke="url(#wgv2)" stroke-width="2"/>
  <text x="80" y="266" text-anchor="middle" font-family="Inter, Arial, sans-serif" font-weight="800" font-size="38" fill="url(#wgv2)">B</text>
  <text x="124" y="262" font-family="Inter, Arial, sans-serif" font-weight="700" font-size="32" fill="#1e1b3a">BuildFlow</text>

  <!-- Row 4 : nodes mark -->
  <rect x="50" y="310" width="60" height="60" rx="14" fill="url(#wgv2)"/>
  <circle cx="64" cy="358" r="5" fill="#fff"/>
  <circle cx="80" cy="328" r="6" fill="#fff"/>
  <circle cx="96" cy="358" r="5" fill="#fff"/>
  <path d="M64 358 L80 328 L96 358" stroke="#fff" stroke-width="3" fill="none" opacity="0.7"/>
  <text x="124" y="352" font-family="Inter, Arial, sans-serif" font-weight="700" font-size="32" fill="#1e1b3a">BuildFlow</text>
</svg>
