<svg width="220" height="220" viewBox="0 0 220 220" xmlns="http://www.w3.org/2000/svg">
  <defs>
    <linearGradient id="r3" x1="0" y1="0" x2="1" y2="1">
      <stop offset="0%" stop-color="#6366f1"/>
      <stop offset="100%" stop-color="#a855f7"/>
    </linearGradient>
  </defs>
  <rect x="10" y="10" width="200" height="200" rx="48" fill="#ffffff" stroke="url(#r3)" stroke-width="3"/>

  <!-- Bâtiment en construction à gauche -->
  <g transform="translate(56,120)">
    <rect x="-20" y="-10" width="40" height="50" fill="url(#r3)"/>
    <rect x="-14" y="-2" width="10" height="10" fill="#ffffff"/>
    <rect x="4" y="-2" width="10" height="10" fill="#ffffff"/>
    <rect x="-14" y="16" width="10" height="10" fill="#ffffff"/>
    <rect x="4" y="16" width="10" height="10" fill="#ffffff"/>
    <path d="M-24 -10 L0 -28 L24 -10 Z" fill="url(#r3)"/>
  </g>

  <!-- Maison du client à droite -->
  <g transform="translate(164,120)">
    <path d="M-22 -6 L0 -26 L22 -6 Z" fill="url(#r3)"/>
    <rect x="-16" y="-6" width="32" height="34" fill="url(#r3)"/>
    <rect x="-6" y="6" width="12" height="22" fill="#ffffff"/>
  </g>

  <!-- Flèche de relais passant l'information entre le chantier et le client -->
  <path d="M86 108 C100 98, 122 98, 134 108" fill="none" stroke="url(#r3)" stroke-width="7" stroke-linecap="round"/>
  <path d="M126 100 L134 108 L124 113" fill="none" stroke="url(#r3)" stroke-width="7" stroke-linecap="round" stroke-linejoin="round"/>
  <path d="M134 150 C122 160, 100 160, 86 150" fill="none" stroke="url(#r3)" stroke-width="7" stroke-linecap="round" opacity="0.55"/>
  <path d="M94 158 L86 150 L96 145" fill="none" stroke="url(#r3)" stroke-width="7" stroke-linecap="round" stroke-linejoin="round" opacity="0.55"/>
</svg>
