<svg width="220" height="220" viewBox="0 0 220 220" xmlns="http://www.w3.org/2000/svg">
  <defs>
    <linearGradient id="r2" x1="0" y1="0" x2="1" y2="1">
      <stop offset="0%" stop-color="#6366f1"/>
      <stop offset="100%" stop-color="#a855f7"/>
    </linearGradient>
  </defs>
  <rect x="10" y="10" width="200" height="200" rx="48" fill="url(#r2)"/>

  <!-- Casque central = le chantier -->
  <g transform="translate(110,108)">
    <path d="M-30 6c0-16.6 13.4-30 30-30s30 13.4 30 30v6h-60z" fill="#ffffff"/>
    <rect x="-36" y="12" width="72" height="9" rx="4.5" fill="#ffffff"/>
    <rect x="-5" y="-38" width="10" height="12" rx="3" fill="#ffffff"/>
  </g>

  <!-- Document à gauche (plans / fichiers) -->
  <g transform="translate(54,150)">
    <rect x="-12" y="-16" width="24" height="32" rx="3" fill="#ffffff"/>
    <rect x="-7" y="-9" width="14" height="3" fill="url(#r2)"/>
    <rect x="-7" y="-2" width="14" height="3" fill="url(#r2)"/>
    <rect x="-7" y="5" width="9" height="3" fill="url(#r2)"/>
  </g>

  <!-- Bulle de discussion à droite (échange / validation client) -->
  <g transform="translate(166,150)">
    <path d="M-16 -12 h32 a6 6 0 0 1 6 6 v12 a6 6 0 0 1 -6 6 h-20 l-8 8 v-8 h-4 a6 6 0 0 1 -6 -6 v-12 a6 6 0 0 1 6 -6 z" fill="#ffffff"/>
  </g>

  <!-- Flux : doc -> casque -> bulle, en va-et-vient -->
  <path d="M64 130 C78 122, 92 116, 100 110" fill="none" stroke="#ffffff" stroke-width="5" stroke-linecap="round" opacity="0.85"/>
  <path d="M120 110 C130 116, 144 122, 156 130" fill="none" stroke="#ffffff" stroke-width="5" stroke-linecap="round" opacity="0.85"/>
  <path d="M150 124 L156 130 L148 134" fill="none" stroke="#ffffff" stroke-width="5" stroke-linecap="round" stroke-linejoin="round" opacity="0.85"/>
</svg>
